<svg width="38" height="38" viewBox="0 0 38 38" fill="none" xmlns="http://www.w3.org/2000/svg">
	<path
		d="M12.1684 3C7.12564 3 3 7.1428 3 12.2061V25.9259C3 30.9892 7.12564 35.132 12.1684 35.132H25.8318C26.8301 35.132 28.0358 35.1807 28.416 35.2116C28.9909 35.2042 31.9981 35.4758 33.1627 36.9037C33.7216 37.5889 34.7509 34.4343 34.0319 33.2156L33.0965 31.4674C34.2728 29.9192 35 28.012 35 25.9259V12.2061C35 7.1428 30.8744 3 25.8318 3H12.1684ZM7.2834 23.759V14.3221C7.2834 10.4465 10.4414 7.27571 14.3012 7.27571H23.699C27.5586 7.27571 30.7168 10.4465 30.7168 14.3221V23.3402C30.7159 23.4746 30.7112 23.6974 30.6942 23.9792C30.6851 24.27 30.6517 24.5542 30.6078 24.8355C30.5859 24.9976 30.5079 25.6897 30.2633 26.1805C29.1765 25.7896 26.5607 26.6351 26.9869 26.8546C28.5831 27.6764 30.4248 31.827 30.4248 31.827C29.0741 30.7997 25.2688 30.8053 23.699 30.8053H14.3012C10.4414 30.8053 7.2834 27.6347 7.2834 23.759Z"
		fill="url(#paint0_linear_6_81)" />
	<defs>
		<linearGradient id="paint0_linear_6_81" x1="3.00004" y1="19.9999" x2="35" y2="19.9999"
			gradientUnits="userSpaceOnUse">
			<stop stop-color="#94CA62" />
			<stop offset="0.996612" stop-color="#20AEB8" />
			<stop offset="1" stop-color="#20AEB8" />
		</linearGradient>
	</defs>
</svg>